<svg height="99" id="gift" data-name="gift" xmlns="http://www.w3.org/2000/svg" viewBox="0 0 106 98.9999"><defs><style>.cls-1{fill:#c40040;fill-rule:evenodd;}</style></defs><title>gift</title><path class="cls-1" d="M80.6416,19.8024a9.0388,9.0388,0,0,0,1.1353-1.5018c1.129-1.8756,1.98-5.0368-.3818-9.4354C78.2412,2.9807,74.46,0,70.1571,0c-4.956,0-10.0993,4.0312-15.2946,11.9878-.6649,1.0215-1.2876,2.0366-1.8617,3.02-.5741-.9831-1.1969-1.9982-1.8633-3.02C45.9438,4.0312,40.7986,0,35.8461,0,31.5437,0,27.76,2.9807,24.6047,8.8652c-2.36,4.3986-1.509,7.56-.38,9.4354A9.0449,9.0449,0,0,0,25.36,19.8024H0V50.6H6.6251V99h92.75V50.6H106V19.8024ZM41.9584,94.5979H11.0423V50.6H41.9584Zm0-48.3964H4.4173v-22H41.9584Zm-7.775-26.3991c-3.1427-.9927-5.28-2.2818-6.1706-3.7641-.2944-.49-1.1888-1.9754.4883-5.1011C30.8286,6.6,33.3,4.3986,35.8461,4.3986c3.2591,0,7.3642,3.532,11.5583,9.9415,1.1872,1.8144,2.2385,3.6384,3.1072,5.2561-.034.0709-.0679.1386-.1019.2062H34.1834ZM59.6242,94.5979H46.3757V24.2011H59.6242ZM55.5937,19.8024c-.0356-.0676-.0712-.1353-.1036-.2062.8669-1.6177,1.9182-3.4417,3.1053-5.2561,4.1958-6.4095,8.3009-9.9415,11.5617-9.9415C72.7,4.3986,75.1713,6.6,77.5,10.9372c1.6757,3.1257.7828,4.6146.4884,5.1011-.89,1.4825-3.0279,2.7716-6.169,3.7641H55.5937ZM94.9592,94.5979H64.0431V50.6H94.9592Zm6.6251-48.3964H64.0431v-22h37.5412Z" transform="translate(0.0001)"/></svg>